<svg width="150" height="150" viewBox="0 0 163 150" fill="none" xmlns="http://www.w3.org/2000/svg">
<g filter="url(#filter0_d_1_99)">
<mask id="mask0_1_99" style="mask-type:alpha" maskUnits="userSpaceOnUse" x="10" y="28" width="147" height="86">
<path d="M44.1992 76.5586H22.2852L22.168 64.4883H40.5664C43.8086 64.4883 46.4648 64.0781 48.5352 63.2578C50.6055 62.3984 52.1484 61.168 53.1641 59.5664C54.2188 57.9258 54.7461 55.9336 54.7461 53.5898C54.7461 50.9336 54.2383 48.7852 53.2227 47.1445C52.2461 45.5039 50.7031 44.3125 48.5938 43.5703C46.5234 42.8281 43.8477 42.457 40.5664 42.457H28.3789V114H10.8008V28.6875H40.5664C45.5273 28.6875 49.9609 29.1562 53.8672 30.0938C57.8125 31.0312 61.1523 32.457 63.8867 34.3711C66.6211 36.2852 68.7109 38.707 70.1562 41.6367C71.6016 44.5273 72.3242 47.9648 72.3242 51.9492C72.3242 55.4648 71.5234 58.707 69.9219 61.6758C68.3594 64.6445 65.8789 67.0664 62.4805 68.9414C59.1211 70.8164 54.7266 71.8516 49.2969 72.0469L44.1992 76.5586ZM43.4375 114H17.4805L24.3359 100.289H43.4375C46.5234 100.289 49.043 99.8008 50.9961 98.8242C52.9492 97.8086 54.3945 96.4414 55.332 94.7227C56.2695 93.0039 56.7383 91.0312 56.7383 88.8047C56.7383 86.3047 56.3086 84.1367 55.4492 82.3008C54.6289 80.4648 53.3008 79.0586 51.4648 78.082C49.6289 77.0664 47.207 76.5586 44.1992 76.5586H27.2656L27.3828 64.4883H48.4766L52.5195 69.2344C57.7148 69.1562 61.8945 70.0742 65.0586 71.9883C68.2617 73.8633 70.5859 76.3047 72.0312 79.3125C73.5156 82.3203 74.2578 85.543 74.2578 88.9805C74.2578 94.4492 73.0664 99.0586 70.6836 102.809C68.3008 106.52 64.8047 109.312 60.1953 111.188C55.625 113.062 50.0391 114 43.4375 114ZM116.797 96.1875L136.895 28.6875H156.465L126.758 114H113.867L116.797 96.1875ZM98.2812 28.6875L118.32 96.1875L121.367 114H108.359L78.8281 28.6875H98.2812Z" fill="black"/>
</mask>
<g mask="url(#mask0_1_99)">
<rect x="11" y="79" width="128" height="35" fill="#4B4B4B"/>
</g>
<mask id="mask1_1_99" style="mask-type:alpha" maskUnits="userSpaceOnUse" x="10" y="24" width="147" height="86">
<path d="M44.1992 72.5586H22.2852L22.168 60.4883H40.5664C43.8086 60.4883 46.4648 60.0781 48.5352 59.2578C50.6055 58.3984 52.1484 57.168 53.1641 55.5664C54.2188 53.9258 54.7461 51.9336 54.7461 49.5898C54.7461 46.9336 54.2383 44.7852 53.2227 43.1445C52.2461 41.5039 50.7031 40.3125 48.5938 39.5703C46.5234 38.8281 43.8477 38.457 40.5664 38.457H28.3789V110H10.8008V24.6875H40.5664C45.5273 24.6875 49.9609 25.1562 53.8672 26.0938C57.8125 27.0312 61.1523 28.457 63.8867 30.3711C66.6211 32.2852 68.7109 34.707 70.1562 37.6367C71.6016 40.5273 72.3242 43.9648 72.3242 47.9492C72.3242 51.4648 71.5234 54.707 69.9219 57.6758C68.3594 60.6445 65.8789 63.0664 62.4805 64.9414C59.1211 66.8164 54.7266 67.8516 49.2969 68.0469L44.1992 72.5586ZM43.4375 110H17.4805L24.3359 96.2891H43.4375C46.5234 96.2891 49.043 95.8008 50.9961 94.8242C52.9492 93.8086 54.3945 92.4414 55.332 90.7227C56.2695 89.0039 56.7383 87.0312 56.7383 84.8047C56.7383 82.3047 56.3086 80.1367 55.4492 78.3008C54.6289 76.4648 53.3008 75.0586 51.4648 74.082C49.6289 73.0664 47.207 72.5586 44.1992 72.5586H27.2656L27.3828 60.4883H48.4766L52.5195 65.2344C57.7148 65.1562 61.8945 66.0742 65.0586 67.9883C68.2617 69.8633 70.5859 72.3047 72.0312 75.3125C73.5156 78.3203 74.2578 81.543 74.2578 84.9805C74.2578 90.4492 73.0664 95.0586 70.6836 98.8086C68.3008 102.52 64.8047 105.312 60.1953 107.188C55.625 109.062 50.0391 110 43.4375 110ZM116.797 92.1875L136.895 24.6875H156.465L126.758 110H113.867L116.797 92.1875ZM98.2812 24.6875L118.32 92.1875L121.367 110H108.359L78.8281 24.6875H98.2812Z" fill="black"/>
</mask>
<g mask="url(#mask1_1_99)">
<path d="M11 25H157V59H11V25Z" fill="#A90000"/>
</g>
</g>
<g filter="url(#filter1_d_1_99)">
<mask id="mask2_1_99" style="mask-type:alpha" maskUnits="userSpaceOnUse" x="3" y="59" width="155" height="20">
<path d="M9.96094 71.3086H5.40234V69.4688H9.96094C10.8438 69.4688 11.5586 69.3281 12.1055 69.0469C12.6523 68.7656 13.0508 68.375 13.3008 67.875C13.5586 67.375 13.6875 66.8047 13.6875 66.1641C13.6875 65.5781 13.5586 65.0273 13.3008 64.5117C13.0508 63.9961 12.6523 63.582 12.1055 63.2695C11.5586 62.9492 10.8438 62.7891 9.96094 62.7891H5.92969V78H3.66797V60.9375H9.96094C11.25 60.9375 12.3398 61.1602 13.2305 61.6055C14.1211 62.0508 14.7969 62.668 15.2578 63.457C15.7188 64.2383 15.9492 65.1328 15.9492 66.1406C15.9492 67.2344 15.7188 68.168 15.2578 68.9414C14.7969 69.7148 14.1211 70.3047 13.2305 70.7109C12.3398 71.1094 11.25 71.3086 9.96094 71.3086ZM25.7422 71.8008V71.5312C25.7422 70.6172 25.875 69.7695 26.1406 68.9883C26.4062 68.1992 26.7891 67.5156 27.2891 66.9375C27.7891 66.3516 28.3945 65.8984 29.1055 65.5781C29.8164 65.25 30.6133 65.0859 31.4961 65.0859C32.3867 65.0859 33.1875 65.25 33.8984 65.5781C34.6172 65.8984 35.2266 66.3516 35.7266 66.9375C36.2344 67.5156 36.6211 68.1992 36.8867 68.9883C37.1523 69.7695 37.2852 70.6172 37.2852 71.5312V71.8008C37.2852 72.7148 37.1523 73.5625 36.8867 74.3438C36.6211 75.125 36.2344 75.8086 35.7266 76.3945C35.2266 76.9727 34.6211 77.4258 33.9102 77.7539C33.207 78.0742 32.4102 78.2344 31.5195 78.2344C30.6289 78.2344 29.8281 78.0742 29.1172 77.7539C28.4062 77.4258 27.7969 76.9727 27.2891 76.3945C26.7891 75.8086 26.4062 75.125 26.1406 74.3438C25.875 73.5625 25.7422 72.7148 25.7422 71.8008ZM27.9102 71.5312V71.8008C27.9102 72.4336 27.9844 73.0312 28.1328 73.5938C28.2812 74.1484 28.5039 74.6406 28.8008 75.0703C29.1055 75.5 29.4844 75.8398 29.9375 76.0898C30.3906 76.332 30.918 76.4531 31.5195 76.4531C32.1133 76.4531 32.6328 76.332 33.0781 76.0898C33.5312 75.8398 33.9062 75.5 34.2031 75.0703C34.5 74.6406 34.7227 74.1484 34.8711 73.5938C35.0273 73.0312 35.1055 72.4336 35.1055 71.8008V71.5312C35.1055 70.9062 35.0273 70.3164 34.8711 69.7617C34.7227 69.1992 34.4961 68.7031 34.1914 68.2734C33.8945 67.8359 33.5195 67.4922 33.0664 67.2422C32.6211 66.9922 32.0977 66.8672 31.4961 66.8672C30.9023 66.8672 30.3789 66.9922 29.9258 67.2422C29.4805 67.4922 29.1055 67.8359 28.8008 68.2734C28.5039 68.7031 28.2812 69.1992 28.1328 69.7617C27.9844 70.3164 27.9102 70.9062 27.9102 71.5312ZM50.1719 67.3125V78H48.0039V65.3203H50.1133L50.1719 67.3125ZM54.1328 65.25L54.1211 67.2656C53.9414 67.2266 53.7695 67.2031 53.6055 67.1953C53.4492 67.1797 53.2695 67.1719 53.0664 67.1719C52.5664 67.1719 52.125 67.25 51.7422 67.4062C51.3594 67.5625 51.0352 67.7812 50.7695 68.0625C50.5039 68.3438 50.293 68.6797 50.1367 69.0703C49.9883 69.4531 49.8906 69.875 49.8438 70.3359L49.2344 70.6875C49.2344 69.9219 49.3086 69.2031 49.457 68.5312C49.6133 67.8594 49.8516 67.2656 50.1719 66.75C50.4922 66.2266 50.8984 65.8203 51.3906 65.5312C51.8906 65.2344 52.4844 65.0859 53.1719 65.0859C53.3281 65.0859 53.5078 65.1055 53.7109 65.1445C53.9141 65.1758 54.0547 65.2109 54.1328 65.25ZM70.0312 65.3203V66.9844H63.1758V65.3203H70.0312ZM65.4961 62.2383H67.6641V74.8594C67.6641 75.2891 67.7305 75.6133 67.8633 75.832C67.9961 76.0508 68.168 76.1953 68.3789 76.2656C68.5898 76.3359 68.8164 76.3711 69.0586 76.3711C69.2383 76.3711 69.4258 76.3555 69.6211 76.3242C69.8242 76.2852 69.9766 76.2539 70.0781 76.2305L70.0898 78C69.918 78.0547 69.6914 78.1055 69.4102 78.1523C69.1367 78.207 68.8047 78.2344 68.4141 78.2344C67.8828 78.2344 67.3945 78.1289 66.9492 77.918C66.5039 77.707 66.1484 77.3555 65.8828 76.8633C65.625 76.3633 65.4961 75.6914 65.4961 74.8477V62.2383ZM83.8086 78H81.6406V63.9844C81.6406 63.0703 81.8047 62.3008 82.1328 61.6758C82.4688 61.043 82.9492 60.5664 83.5742 60.2461C84.1992 59.918 84.9414 59.7539 85.8008 59.7539C86.0508 59.7539 86.3008 59.7695 86.5508 59.8008C86.8086 59.832 87.0586 59.8789 87.3008 59.9414L87.1836 61.7109C87.0195 61.6719 86.832 61.6445 86.6211 61.6289C86.418 61.6133 86.2148 61.6055 86.0117 61.6055C85.5508 61.6055 85.1523 61.6992 84.8164 61.8867C84.4883 62.0664 84.2383 62.332 84.0664 62.6836C83.8945 63.0352 83.8086 63.4688 83.8086 63.9844V78ZM86.5039 65.3203V66.9844H79.6367V65.3203H86.5039ZM96.3438 71.8008V71.5312C96.3438 70.6172 96.4766 69.7695 96.7422 68.9883C97.0078 68.1992 97.3906 67.5156 97.8906 66.9375C98.3906 66.3516 98.9961 65.8984 99.707 65.5781C100.418 65.25 101.215 65.0859 102.098 65.0859C102.988 65.0859 103.789 65.25 104.5 65.5781C105.219 65.8984 105.828 66.3516 106.328 66.9375C106.836 67.5156 107.223 68.1992 107.488 68.9883C107.754 69.7695 107.887 70.6172 107.887 71.5312V71.8008C107.887 72.7148 107.754 73.5625 107.488 74.3438C107.223 75.125 106.836 75.8086 106.328 76.3945C105.828 76.9727 105.223 77.4258 104.512 77.7539C103.809 78.0742 103.012 78.2344 102.121 78.2344C101.23 78.2344 100.43 78.0742 99.7188 77.7539C99.0078 77.4258 98.3984 76.9727 97.8906 76.3945C97.3906 75.8086 97.0078 75.125 96.7422 74.3438C96.4766 73.5625 96.3438 72.7148 96.3438 71.8008ZM98.5117 71.5312V71.8008C98.5117 72.4336 98.5859 73.0312 98.7344 73.5938C98.8828 74.1484 99.1055 74.6406 99.4023 75.0703C99.707 75.5 100.086 75.8398 100.539 76.0898C100.992 76.332 101.52 76.4531 102.121 76.4531C102.715 76.4531 103.234 76.332 103.68 76.0898C104.133 75.8398 104.508 75.5 104.805 75.0703C105.102 74.6406 105.324 74.1484 105.473 73.5938C105.629 73.0312 105.707 72.4336 105.707 71.8008V71.5312C105.707 70.9062 105.629 70.3164 105.473 69.7617C105.324 69.1992 105.098 68.7031 104.793 68.2734C104.496 67.8359 104.121 67.4922 103.668 67.2422C103.223 66.9922 102.699 66.8672 102.098 66.8672C101.504 66.8672 100.98 66.9922 100.527 67.2422C100.082 67.4922 99.707 67.8359 99.4023 68.2734C99.1055 68.7031 98.8828 69.1992 98.7344 69.7617C98.5859 70.3164 98.5117 70.9062 98.5117 71.5312ZM120.961 60V78H118.781V60H120.961ZM134.797 65.3203V78H132.617V65.3203H134.797ZM132.453 61.957C132.453 61.6055 132.559 61.3086 132.77 61.0664C132.988 60.8242 133.309 60.7031 133.73 60.7031C134.145 60.7031 134.461 60.8242 134.68 61.0664C134.906 61.3086 135.02 61.6055 135.02 61.957C135.02 62.293 134.906 62.582 134.68 62.8242C134.461 63.0586 134.145 63.1758 133.73 63.1758C133.309 63.1758 132.988 63.0586 132.77 62.8242C132.559 62.582 132.453 62.293 132.453 61.957ZM145.703 71.8008V71.5312C145.703 70.6172 145.836 69.7695 146.102 68.9883C146.367 68.1992 146.75 67.5156 147.25 66.9375C147.75 66.3516 148.355 65.8984 149.066 65.5781C149.777 65.25 150.574 65.0859 151.457 65.0859C152.348 65.0859 153.148 65.25 153.859 65.5781C154.578 65.8984 155.188 66.3516 155.688 66.9375C156.195 67.5156 156.582 68.1992 156.848 68.9883C157.113 69.7695 157.246 70.6172 157.246 71.5312V71.8008C157.246 72.7148 157.113 73.5625 156.848 74.3438C156.582 75.125 156.195 75.8086 155.688 76.3945C155.188 76.9727 154.582 77.4258 153.871 77.7539C153.168 78.0742 152.371 78.2344 151.48 78.2344C150.59 78.2344 149.789 78.0742 149.078 77.7539C148.367 77.4258 147.758 76.9727 147.25 76.3945C146.75 75.8086 146.367 75.125 146.102 74.3438C145.836 73.5625 145.703 72.7148 145.703 71.8008ZM147.871 71.5312V71.8008C147.871 72.4336 147.945 73.0312 148.094 73.5938C148.242 74.1484 148.465 74.6406 148.762 75.0703C149.066 75.5 149.445 75.8398 149.898 76.0898C150.352 76.332 150.879 76.4531 151.48 76.4531C152.074 76.4531 152.594 76.332 153.039 76.0898C153.492 75.8398 153.867 75.5 154.164 75.0703C154.461 74.6406 154.684 74.1484 154.832 73.5938C154.988 73.0312 155.066 72.4336 155.066 71.8008V71.5312C155.066 70.9062 154.988 70.3164 154.832 69.7617C154.684 69.1992 154.457 68.7031 154.152 68.2734C153.855 67.8359 153.48 67.4922 153.027 67.2422C152.582 66.9922 152.059 66.8672 151.457 66.8672C150.863 66.8672 150.34 66.9922 149.887 67.2422C149.441 67.4922 149.066 67.8359 148.762 68.2734C148.465 68.7031 148.242 69.1992 148.094 69.7617C147.945 70.3164 147.871 70.9062 147.871 71.5312Z" fill="black"/>
</mask>
<g mask="url(#mask2_1_99)">
<rect y="54" width="160" height="28" fill="#A90000"/>
</g>
</g>
<defs>
<filter id="filter0_d_1_99" x="10" y="25" width="151.465" height="95" filterUnits="userSpaceOnUse" color-interpolation-filters="sRGB">
<feFlood flood-opacity="0" result="BackgroundImageFix"/>
<feColorMatrix in="SourceAlpha" type="matrix" values="0 0 0 0 0 0 0 0 0 0 0 0 0 0 0 0 0 0 127 0" result="hardAlpha"/>
<feOffset dx="2" dy="3"/>
<feGaussianBlur stdDeviation="1.5"/>
<feComposite in2="hardAlpha" operator="out"/>
<feColorMatrix type="matrix" values="0 0 0 0 0 0 0 0 0 0 0 0 0 0 0 0 0 0 0.2 0"/>
<feBlend mode="normal" in2="BackgroundImageFix" result="effect1_dropShadow_1_99"/>
<feBlend mode="normal" in="SourceGraphic" in2="effect1_dropShadow_1_99" result="shape"/>
</filter>
<filter id="filter1_d_1_99" x="2.66797" y="58.7539" width="159.578" height="24.4805" filterUnits="userSpaceOnUse" color-interpolation-filters="sRGB">
<feFlood flood-opacity="0" result="BackgroundImageFix"/>
<feColorMatrix in="SourceAlpha" type="matrix" values="0 0 0 0 0 0 0 0 0 0 0 0 0 0 0 0 0 0 127 0" result="hardAlpha"/>
<feOffset dx="2" dy="2"/>
<feGaussianBlur stdDeviation="1.5"/>
<feColorMatrix type="matrix" values="0 0 0 0 0 0 0 0 0 0 0 0 0 0 0 0 0 0 0.15 0"/>
<feBlend mode="normal" in2="BackgroundImageFix" result="effect1_dropShadow_1_99"/>
<feBlend mode="normal" in="SourceGraphic" in2="effect1_dropShadow_1_99" result="shape"/>
</filter>
</defs>
</svg>
